<?xml version="1.0" encoding="UTF-8" standalone="no"?>
<svg xmlns="http://www.w3.org/2000/svg" version="1.1" viewBox="0 0 343.90176 100.13988">
  <path fill="#013ca6" d="m127.8 0.78906l-97.353 75.471h28.817l15.935-12.211 48.001-11.865-7.02 24.052 22.28-0.047 21.05-75.4-31.71 0.00006zm70.52 0.01172c-4.09 0-24.79 0.49422-30.02 16.355l-12.07 36.692c-3.55 13.777 5.74 22.4 18.42 22.4h53.69l5.77-17.521h-45.32c-7.1 0-12.17-2.815-10.43-9.305l8.26-25.16c1.69-3.63 5.23-5.934 9.67-5.934h33.76l26.57-17.527-58.3-0.00022zm86.5 0c-4.1 0-24.8 0.49422-30.02 16.355l-12.07 36.692c-3.56 13.777 5.73 22.4 18.41 22.4h53.7l5.77-17.521h-45.32c-7.1 0-12.17-2.815-10.44-9.305l8.27-25.16c1.69-3.63 5.23-5.934 9.66-5.934h33.77l26.56-17.527-58.29-0.00022zm-152.18 19.021l-8.22 28.166h-28.301l36.521-28.166z"/>
  <path fill="#a8a9aa" d="m17.662 86.176l-16.451 12.754h306.62l4.19-12.754z"/>
</svg>